# xmcd
#
# Track frame offsets: 
#        150
#        13582
#        27090
#        41111
#        54261
#        65744
#        79116
#        92605
#        107352
#        119984
#        134844
#        148414
#        164154
#        179010
#        192264
#
# Disc length: 2752 seconds
#
# Revision: 2
# Processed by: cddbd v1.5.2PL0 Copyright (c) Steve Scherf et al.
# Submitted via: ExactAudioCopyFreeDBPlugin 1.0
#
DISCID=e40abe0f
DTITLE=Sonny Boy Williamson - Father Of Blues Harmonica
DYEAR=1937
DGENRE=Blues
TTITLE0=Better Cut That Out
TTITLE1=Good Morning, Little School Girl
TTITLE2=Blue Bird Blues
TTITLE3=Jackson Blues
TTITLE4=Got The Bottle Up And Gone
TTITLE5=Sugar Mama Blues
TTITLE6=Skinny Woman
TTITLE7=Up The Country Blues
TTITLE8=Black Gal Blues
TTITLE9=Collector Man Blues
TTITLE10=Frigidaire Blues
TTITLE11=Decoration Blues
TTITLE12=Sunny Land
TTITLE13=I'm Tired Trucking My Blues Away
TTITLE14=Until My Love Come Down
EXTD=YEAR: 2006
EXTT0=
EXTT1=
EXTT2=
EXTT3=
EXTT4=
EXTT5=
EXTT6=
EXTT7=
EXTT8=
EXTT9=
EXTT10=
EXTT11=
EXTT12=
EXTT13=
EXTT14=
PLAYORDER=
